<?xml version="1.0" encoding="utf-8"?>
<svg xmlns="http://www.w3.org/2000/svg" viewBox="0 0 24 24" width="480" height="480">
  <path fill-rule="evenodd" d="M14.75 2L14.621094 2L14.363281 2.007813L14.234375 2.015625L14.109375 2.019531L13.980469 2.03125L13.855469 2.039063L13.730469 2.054688L13.601563 2.0625L13.476563 2.078125L13.351563 2.097656L13.230469 2.117188L13.105469 2.132813L12.980469 2.15625L12.859375 2.179688L12.734375 2.203125L12.613281 2.226563L12.492188 2.257813L12.25 2.3125L12.015625 2.382813L11.894531 2.414063L11.660156 2.484375L11.546875 2.523438L11.425781 2.566406L11.3125 2.609375L11.199219 2.648438L10.972656 2.742188L10.859375 2.785156L10.746094 2.835938L10.636719 2.882813L10.527344 2.9375L10.417969 2.984375L10.199219 3.09375L10.09375 3.148438L9.984375 3.207031L9.878906 3.265625L9.773438 3.328125L9.671875 3.386719L9.566406 3.449219L9.464844 3.511719L9.359375 3.578125L9.261719 3.640625L9.160156 3.710938L9.0625 3.777344L8.960938 3.84375L8.867188 3.914063L8.765625 3.988281L8.671875 4.0625L8.578125 4.132813L8.484375 4.210938L8.296875 4.359375L8.207031 4.4375L8.027344 4.601563L7.9375 4.679688L7.851563 4.765625L7.765625 4.84375L7.59375 5.015625L7.515625 5.101563L7.429688 5.1875L7.351563 5.277344L7.1875 5.457031L7.109375 5.546875L6.960938 5.734375L6.882813 5.828125L6.8125 5.921875L6.738281 6.015625L6.664063 6.117188L6.59375 6.210938L6.527344 6.3125L6.460938 6.410156L6.390625 6.511719L6.328125 6.609375L6.261719 6.714844L6.199219 6.816406L6.136719 6.921875L6.078125 7.023438L6.015625 7.128906L5.957031 7.234375L5.898438 7.34375L5.789063 7.554688L5.734375 7.664063L5.6875 7.773438L5.632813 7.886719L5.585938 7.996094L5.535156 8.109375L5.492188 8.222656L5.398438 8.449219L5.359375 8.5625L5.273438 8.796875L5.234375 8.910156L5.164063 9.144531L5.132813 9.265625L5.0625 9.5L5.007813 9.742188L4.976563 9.863281L4.953125 9.984375L4.929688 10.109375L4.90625 10.230469L4.882813 10.355469L4.867188 10.480469L4.847656 10.601563L4.828125 10.726563L4.8125 10.851563L4.804688 10.980469L4.789063 11.105469L4.78125 11.230469L4.769531 11.359375L4.765625 11.484375L4.757813 11.613281L4.75 11.871094L4.75 12.128906L4.757813 12.386719L4.765625 12.515625L4.769531 12.640625L4.78125 12.769531L4.789063 12.894531L4.804688 13.019531L4.8125 13.148438L4.828125 13.273438L4.847656 13.398438L4.867188 13.519531L4.882813 13.644531L4.90625 13.769531L4.929688 13.890625L4.953125 14.015625L4.976563 14.136719L5.007813 14.257813L5.0625 14.5L5.132813 14.734375L5.164063 14.855469L5.234375 15.089844L5.273438 15.203125L5.316406 15.324219L5.359375 15.4375L5.398438 15.550781L5.492188 15.777344L5.535156 15.890625L5.585938 16.003906L5.632813 16.113281L5.6875 16.222656L5.734375 16.332031L5.84375 16.550781L5.898438 16.65625L5.957031 16.765625L6.015625 16.871094L6.078125 16.976563L6.136719 17.078125L6.199219 17.183594L6.261719 17.285156L6.328125 17.390625L6.390625 17.488281L6.460938 17.589844L6.59375 17.785156L6.664063 17.886719L6.738281 17.984375L6.8125 18.078125L6.882813 18.171875L6.960938 18.265625L7.109375 18.453125L7.1875 18.542969L7.351563 18.722656L7.429688 18.8125L7.515625 18.898438L7.59375 18.984375L7.765625 19.15625L7.851563 19.234375L7.9375 19.320313L8.027344 19.402344L8.117188 19.480469L8.207031 19.5625L8.296875 19.640625L8.390625 19.714844L8.484375 19.792969L8.578125 19.863281L8.765625 20.011719L8.867188 20.082031L8.960938 20.15625L9.0625 20.222656L9.160156 20.292969L9.261719 20.359375L9.359375 20.421875L9.464844 20.488281L9.566406 20.550781L9.671875 20.613281L9.773438 20.671875L9.878906 20.734375L9.984375 20.792969L10.09375 20.847656L10.199219 20.90625L10.417969 21.015625L10.527344 21.0625L10.636719 21.113281L10.746094 21.167969L11.085938 21.308594L11.199219 21.347656L11.425781 21.433594L11.546875 21.472656L11.660156 21.515625L11.894531 21.585938L12.015625 21.621094L12.132813 21.652344L12.25 21.6875L12.371094 21.714844L12.492188 21.746094L12.613281 21.769531L12.734375 21.796875L12.859375 21.820313L12.980469 21.84375L13.105469 21.863281L13.230469 21.886719L13.351563 21.902344L13.476563 21.921875L13.601563 21.9375L13.730469 21.949219L13.855469 21.960938L13.980469 21.96875L14.109375 21.980469L14.234375 21.984375L14.363281 21.992188L14.621094 22L14.902344 22L15.050781 21.996094L15.203125 21.988281L15.351563 21.984375L15.5 21.972656L15.652344 21.960938L15.796875 21.945313L15.945313 21.929688L16.09375 21.910156L16.238281 21.890625L16.386719 21.867188L16.527344 21.84375L16.671875 21.8125L16.8125 21.785156L16.957031 21.753906L17.097656 21.722656L17.378906 21.652344L17.519531 21.609375L17.65625 21.570313L17.796875 21.527344L17.933594 21.484375L18.066406 21.4375L18.339844 21.335938L18.46875 21.28125L18.605469 21.230469L18.863281 21.113281L18.996094 21.058594L19.125 20.996094L19.25 20.933594L19.097656 20.855469L18.949219 20.769531L18.796875 20.6875L18.652344 20.601563L18.503906 20.515625L18.359375 20.421875L18.078125 20.234375L17.9375 20.136719L17.664063 19.933594L17.398438 19.722656L17.269531 19.613281L17.140625 19.5L17.015625 19.390625L16.765625 19.15625L16.53125 18.914063L16.410156 18.792969L16.296875 18.667969L15.96875 18.28125L15.863281 18.144531L15.761719 18.011719L15.65625 17.875L15.5625 17.734375L15.464844 17.59375L15.277344 17.3125L15.1875 17.164063L15.097656 17.019531L15.015625 16.871094L14.933594 16.71875L14.855469 16.566406L14.777344 16.417969L14.628906 16.105469L14.5625 15.949219L14.429688 15.628906L14.398438 15.546875L14.371094 15.46875L14.339844 15.386719L14.3125 15.304688L14.28125 15.222656L14.226563 15.058594L14.203125 14.976563L14.175781 14.890625L14.152344 14.808594L14.125 14.726563L14.105469 14.640625L14.078125 14.558594L14.058594 14.472656L14.035156 14.390625L14.015625 14.300781L13.996094 14.21875L13.980469 14.132813L13.960938 14.046875L13.941406 13.957031L13.925781 13.875L13.90625 13.785156L13.894531 13.699219L13.878906 13.609375L13.863281 13.523438L13.855469 13.4375L13.839844 13.347656L13.828125 13.261719L13.816406 13.171875L13.808594 13.082031L13.796875 12.992188L13.789063 12.90625L13.78125 12.8125L13.777344 12.722656L13.769531 12.636719L13.765625 12.546875L13.761719 12.453125L13.75 12.183594L13.75 11.816406L13.761719 11.546875L13.765625 11.453125L13.769531 11.363281L13.777344 11.277344L13.78125 11.1875L13.789063 11.09375L13.796875 11.007813L13.808594 10.917969L13.816406 10.828125L13.828125 10.738281L13.839844 10.652344L13.855469 10.5625L13.863281 10.476563L13.878906 10.390625L13.894531 10.300781L13.90625 10.214844L13.925781 10.125L13.941406 10.042969L13.960938 9.953125L13.980469 9.867188L13.996094 9.78125L14.035156 9.609375L14.058594 9.527344L14.078125 9.445313L14.105469 9.359375L14.125 9.273438L14.152344 9.191406L14.175781 9.109375L14.203125 9.023438L14.226563 8.941406L14.28125 8.777344L14.3125 8.695313L14.339844 8.613281L14.371094 8.53125L14.398438 8.453125L14.429688 8.367188L14.5625 8.054688L14.628906 7.894531L14.703125 7.738281L14.777344 7.585938L14.855469 7.429688L14.933594 7.28125L15.015625 7.132813L15.097656 6.980469L15.1875 6.835938L15.277344 6.6875L15.464844 6.40625L15.5625 6.265625L15.65625 6.125L15.761719 5.988281L15.863281 5.851563L15.96875 5.71875L16.1875 5.460938L16.296875 5.335938L16.410156 5.207031L16.53125 5.085938L16.648438 4.960938L16.765625 4.84375L17.015625 4.609375L17.140625 4.5L17.269531 4.386719L17.398438 4.277344L17.664063 4.066406L17.9375 3.863281L18.078125 3.765625L18.359375 3.578125L18.503906 3.484375L18.652344 3.398438L18.796875 3.3125L18.949219 3.226563L19.097656 3.148438L19.25 3.070313L19.125 3.007813L18.996094 2.945313L18.863281 2.882813L18.605469 2.773438L18.46875 2.71875L18.339844 2.664063L18.066406 2.5625L17.933594 2.515625L17.796875 2.472656L17.65625 2.429688L17.519531 2.390625L17.238281 2.3125L16.957031 2.242188L16.8125 2.214844L16.671875 2.1875L16.527344 2.15625L16.386719 2.132813L16.238281 2.109375L16.09375 2.089844L15.945313 2.070313L15.796875 2.054688L15.652344 2.039063L15.5 2.027344L15.351563 2.015625L15.203125 2.007813L15.050781 2.003906L14.902344 2 Z M 14.75 4L14.808594 4L14.671875 4.152344L14.542969 4.304688L14.410156 4.464844L14.160156 4.785156L14.042969 4.949219L13.921875 5.117188L13.808594 5.28125L13.691406 5.453125L13.582031 5.625L13.476563 5.796875L13.371094 5.976563L13.269531 6.15625L13.171875 6.332031L12.984375 6.699219L12.894531 6.882813L12.722656 7.257813L12.644531 7.453125L12.566406 7.640625L12.53125 7.742188L12.492188 7.835938L12.457031 7.9375L12.421875 8.03125L12.390625 8.132813L12.355469 8.230469L12.324219 8.328125L12.261719 8.53125L12.230469 8.628906L12.203125 8.726563L12.171875 8.828125L12.144531 8.929688L12.121094 9.03125L12.09375 9.132813L12.070313 9.238281L12.046875 9.339844L12.023438 9.445313L12 9.546875L11.980469 9.648438L11.941406 9.859375L11.921875 9.960938L11.890625 10.171875L11.875 10.28125L11.859375 10.386719L11.84375 10.488281L11.828125 10.597656L11.820313 10.703125L11.808594 10.8125L11.796875 10.917969L11.789063 11.023438L11.78125 11.132813L11.773438 11.238281L11.765625 11.347656L11.761719 11.453125L11.75 11.78125L11.75 12.21875L11.761719 12.546875L11.765625 12.652344L11.773438 12.761719L11.78125 12.867188L11.789063 12.976563L11.796875 13.082031L11.808594 13.1875L11.820313 13.296875L11.828125 13.402344L11.84375 13.511719L11.859375 13.613281L11.875 13.71875L11.890625 13.828125L11.90625 13.933594L11.921875 14.035156L11.960938 14.246094L11.980469 14.347656L12 14.453125L12.023438 14.558594L12.09375 14.863281L12.121094 14.96875L12.144531 15.066406L12.171875 15.171875L12.203125 15.269531L12.230469 15.371094L12.261719 15.46875L12.324219 15.671875L12.355469 15.769531L12.390625 15.871094L12.421875 15.96875L12.457031 16.0625L12.492188 16.160156L12.53125 16.261719L12.566406 16.359375L12.644531 16.546875L12.722656 16.738281L12.894531 17.113281L12.984375 17.300781L13.171875 17.667969L13.269531 17.84375L13.371094 18.023438L13.476563 18.203125L13.582031 18.375L13.691406 18.546875L13.808594 18.71875L13.921875 18.886719L14.042969 19.050781L14.160156 19.214844L14.410156 19.535156L14.542969 19.691406L14.671875 19.847656L14.808594 20L14.644531 20L14.542969 19.996094L14.4375 19.996094L14.339844 19.988281L14.234375 19.984375L14.03125 19.96875L13.933594 19.957031L13.828125 19.949219L13.730469 19.9375L13.628906 19.921875L13.433594 19.890625L13.332031 19.875L13.234375 19.859375L13.136719 19.839844L13.039063 19.816406L12.941406 19.796875L12.847656 19.769531L12.75 19.75L12.65625 19.722656L12.5625 19.699219L12.46875 19.671875L12.371094 19.640625L12.28125 19.609375L12 19.515625L11.910156 19.480469L11.816406 19.445313L11.730469 19.40625L11.640625 19.371094L11.546875 19.332031L11.460938 19.296875L11.375 19.253906L11.285156 19.214844L11.199219 19.171875L11.109375 19.125L11.027344 19.078125L10.9375 19.035156L10.855469 18.988281L10.769531 18.941406L10.6875 18.890625L10.605469 18.84375L10.523438 18.792969L10.441406 18.738281L10.359375 18.6875L10.28125 18.636719L10.203125 18.578125L10.121094 18.523438L10.046875 18.46875L9.96875 18.410156L9.890625 18.355469L9.8125 18.296875L9.515625 18.046875L9.375 17.921875L9.09375 17.65625L9.027344 17.589844L8.960938 17.515625L8.894531 17.449219L8.828125 17.375L8.765625 17.308594L8.453125 16.9375L8.398438 16.859375L8.28125 16.703125L8.226563 16.628906L8.171875 16.546875L8.0625 16.390625L8.007813 16.308594L7.90625 16.144531L7.859375 16.0625L7.808594 15.980469L7.761719 15.894531L7.714844 15.8125L7.671875 15.722656L7.625 15.640625L7.578125 15.550781L7.539063 15.464844L7.496094 15.378906L7.453125 15.289063L7.417969 15.203125L7.378906 15.109375L7.34375 15.019531L7.304688 14.933594L7.269531 14.839844L7.234375 14.75L7.140625 14.46875L7.109375 14.378906L7.078125 14.28125L7.054688 14.1875L7 14L6.976563 13.902344L6.953125 13.808594L6.914063 13.613281L6.890625 13.515625L6.875 13.417969L6.859375 13.316406L6.828125 13.121094L6.8125 13.019531L6.804688 12.921875L6.789063 12.820313L6.765625 12.515625L6.757813 12.410156L6.757813 12.3125L6.753906 12.207031L6.75 12.105469L6.75 11.894531L6.753906 11.792969L6.757813 11.6875L6.757813 11.589844L6.765625 11.484375L6.789063 11.179688L6.804688 11.078125L6.8125 10.980469L6.828125 10.878906L6.859375 10.683594L6.875 10.582031L6.890625 10.484375L6.914063 10.386719L6.953125 10.191406L6.976563 10.097656L7 10L7.054688 9.8125L7.078125 9.71875L7.109375 9.621094L7.140625 9.53125L7.234375 9.25L7.304688 9.070313L7.34375 8.976563L7.378906 8.890625L7.417969 8.796875L7.453125 8.710938L7.496094 8.621094L7.539063 8.535156L7.578125 8.445313L7.671875 8.273438L7.714844 8.1875L7.808594 8.023438L7.859375 7.9375L7.90625 7.855469L8.007813 7.691406L8.0625 7.609375L8.171875 7.453125L8.226563 7.371094L8.28125 7.296875L8.398438 7.140625L8.453125 7.0625L8.703125 6.765625L8.828125 6.625L9.09375 6.34375L9.375 6.078125L9.515625 5.953125L9.8125 5.703125L9.890625 5.648438L10.046875 5.53125L10.121094 5.476563L10.203125 5.421875L10.359375 5.3125L10.441406 5.257813L10.605469 5.15625L10.6875 5.109375L10.769531 5.058594L10.855469 5.011719L10.9375 4.964844L11.027344 4.921875L11.109375 4.875L11.199219 4.828125L11.285156 4.789063L11.375 4.746094L11.460938 4.703125L11.546875 4.667969L11.640625 4.628906L11.730469 4.59375L11.816406 4.554688L11.910156 4.519531L12 4.484375L12.28125 4.390625L12.371094 4.359375L12.46875 4.328125L12.5625 4.304688L12.75 4.25L12.847656 4.226563L12.941406 4.203125L13.136719 4.164063L13.234375 4.140625L13.332031 4.125L13.433594 4.109375L13.628906 4.078125L13.730469 4.0625L13.828125 4.054688L13.933594 4.039063L14.03125 4.03125L14.234375 4.015625L14.339844 4.007813L14.4375 4.007813L14.542969 4.003906L14.644531 4Z" />
</svg>